<svg id="svg" version="1.1" xmlns="http://www.w3.org/2000/svg" xmlns:xlink="http://www.w3.org/1999/xlink" width="400" height="356.1128526645768" viewBox="0, 0, 400,356.1128526645768"><g id="svgg"><path id="path0" d="M158.326 131.088 C 152.692 131.798,149.727 132.140,149.196 132.143 C 147.970 132.149,148.573 135.161,150.209 137.203 C 150.413 137.458,150.702 138.068,150.850 138.557 C 150.999 139.047,151.219 139.528,151.339 139.626 C 151.460 139.724,152.903 142.493,154.548 145.781 C 156.192 149.068,157.674 151.842,157.842 151.946 C 158.010 152.050,158.148 152.424,158.148 152.778 C 158.148 153.132,158.468 153.829,158.860 154.327 C 159.252 154.825,159.573 155.468,159.573 155.756 C 159.573 156.044,159.803 156.471,160.084 156.704 C 160.365 156.937,160.696 157.587,160.819 158.148 C 160.942 158.708,161.273 159.358,161.555 159.592 C 161.836 159.825,162.066 160.252,162.066 160.540 C 162.066 160.827,162.386 161.471,162.778 161.969 C 163.170 162.467,163.491 163.173,163.491 163.539 C 163.491 163.904,163.648 164.203,163.840 164.203 C 164.032 164.203,164.294 164.644,164.422 165.183 C 164.550 165.721,164.850 166.402,165.088 166.696 C 165.327 166.990,165.986 168.192,166.554 169.368 C 167.122 170.543,167.685 171.585,167.806 171.683 C 167.926 171.781,168.146 172.262,168.295 172.752 C 168.443 173.241,168.697 173.809,168.860 174.014 C 169.022 174.218,170.926 177.889,173.090 182.172 L 177.026 189.959 177.026 206.264 L 177.026 222.569 178.081 223.321 C 180.329 224.921,191.547 226.015,196.300 225.097 C 197.356 224.893,199.297 224.588,200.615 224.419 C 201.980 224.244,203.550 223.778,204.266 223.336 L 205.521 222.560 205.521 205.833 L 205.521 189.106 206.768 186.797 C 207.453 185.527,208.014 184.271,208.014 184.006 C 208.014 183.741,208.255 183.325,208.549 183.081 C 208.842 182.837,209.083 182.361,209.083 182.023 C 209.083 181.686,209.403 181.039,209.795 180.588 C 210.187 180.136,210.508 179.490,210.508 179.152 C 210.508 178.814,210.738 178.347,211.019 178.113 C 211.300 177.880,211.631 177.230,211.754 176.670 C 211.877 176.109,212.208 175.459,212.490 175.226 C 212.771 174.992,213.001 174.520,213.001 174.176 C 213.001 173.832,213.241 173.352,213.535 173.108 C 213.829 172.864,214.069 172.514,214.069 172.330 C 214.069 172.002,215.559 168.822,216.208 167.765 C 216.388 167.471,216.949 166.349,217.454 165.272 C 217.960 164.194,218.521 163.072,218.701 162.778 C 218.881 162.484,219.463 161.282,219.994 160.107 C 220.524 158.931,221.091 157.916,221.254 157.851 C 221.416 157.786,221.549 157.447,221.549 157.098 C 221.549 156.749,221.846 156.081,222.207 155.613 C 222.569 155.146,222.973 154.323,223.105 153.785 C 223.236 153.246,223.501 152.805,223.693 152.805 C 223.886 152.805,224.043 152.506,224.043 152.141 C 224.043 151.775,224.339 151.094,224.701 150.627 C 225.063 150.160,225.467 149.337,225.598 148.798 C 225.730 148.259,225.982 147.818,226.158 147.818 C 226.335 147.818,226.583 147.349,226.709 146.774 C 226.835 146.200,227.168 145.539,227.449 145.306 C 227.731 145.073,227.961 144.694,227.961 144.464 C 227.961 143.956,230.884 138.080,231.515 137.320 C 232.238 136.449,233.197 136.661,233.471 137.752 C 233.606 138.289,233.836 138.810,233.981 138.910 C 234.127 139.010,234.763 140.134,235.394 141.407 C 236.025 142.680,236.677 143.963,236.842 144.256 C 237.007 144.550,237.582 145.716,238.119 146.846 C 238.656 147.977,239.235 148.988,239.405 149.094 C 239.576 149.199,239.715 149.572,239.715 149.922 C 239.715 150.272,240.036 150.928,240.427 151.380 C 240.819 151.832,241.140 152.488,241.140 152.838 C 241.140 153.189,241.285 153.565,241.462 153.674 C 241.639 153.784,242.851 155.997,244.155 158.593 C 245.459 161.189,246.666 163.553,246.838 163.847 C 247.009 164.141,247.377 164.862,247.655 165.450 C 249.113 168.530,255.475 180.813,255.764 181.104 C 255.949 181.290,256.100 181.711,256.100 182.040 C 256.100 182.369,256.324 182.824,256.599 183.052 C 256.874 183.280,257.207 183.899,257.340 184.428 C 257.472 184.957,257.702 185.471,257.850 185.571 C 257.997 185.671,258.546 186.664,259.068 187.778 L 260.018 189.805 260.018 206.389 C 260.018 220.239,260.099 222.974,260.508 222.974 C 260.778 222.974,261.195 223.210,261.435 223.499 C 261.674 223.788,262.375 224.102,262.992 224.198 C 263.609 224.294,265.669 224.637,267.570 224.959 C 273.385 225.946,285.148 224.965,287.488 223.299 L 288.487 222.588 288.589 205.773 L 288.691 188.958 296.644 172.930 C 301.017 164.114,304.734 156.661,304.902 156.367 C 305.071 156.073,305.629 154.951,306.144 153.874 C 306.659 152.796,307.230 151.674,307.414 151.380 C 307.598 151.086,307.909 150.445,308.104 149.955 C 308.299 149.466,308.613 148.825,308.801 148.531 C 309.415 147.569,310.953 144.308,310.953 143.966 C 310.953 143.782,311.193 143.432,311.487 143.188 C 311.781 142.944,312.021 142.455,312.021 142.101 C 312.021 141.747,312.241 141.239,312.509 140.971 C 312.777 140.703,313.116 140.090,313.263 139.609 C 313.410 139.129,313.730 138.495,313.975 138.201 C 314.219 137.907,314.524 137.226,314.652 136.687 C 314.780 136.149,315.042 135.708,315.234 135.708 C 315.426 135.708,315.583 135.505,315.583 135.257 C 315.583 135.010,315.899 134.217,316.285 133.497 L 316.988 132.187 315.306 131.973 C 314.381 131.855,312.582 131.572,311.309 131.344 C 301.946 129.663,286.376 132.086,286.376 135.224 C 286.376 135.349,286.055 136.151,285.663 137.005 C 285.272 137.859,284.630 139.256,284.239 140.110 C 283.847 140.964,283.526 141.906,283.526 142.204 C 283.526 142.501,283.286 142.944,282.992 143.188 C 282.698 143.432,282.458 143.933,282.458 144.301 C 282.458 144.670,282.137 145.570,281.745 146.301 C 281.354 147.032,281.033 147.819,281.033 148.051 C 281.033 148.283,280.808 148.927,280.533 149.481 C 279.440 151.684,278.540 153.793,278.540 154.151 C 278.540 154.358,278.314 154.982,278.039 155.537 C 276.808 158.017,276.046 159.872,276.046 160.387 C 276.046 162.305,273.447 162.597,273.091 160.719 C 272.907 159.749,272.031 157.125,271.222 155.120 C 270.985 154.533,270.611 153.531,270.391 152.894 C 269.365 149.924,269.148 149.359,268.695 148.476 C 268.428 147.956,268.205 147.234,268.198 146.873 C 268.191 146.511,267.876 145.574,267.498 144.791 C 267.119 144.007,266.799 143.045,266.786 142.654 C 266.773 142.262,266.527 141.630,266.240 141.250 C 265.952 140.870,265.711 140.309,265.705 140.003 C 265.698 139.698,265.383 138.807,265.004 138.023 C 264.626 137.240,264.311 136.330,264.304 136.002 C 264.289 135.250,262.401 133.339,261.349 133.011 C 260.910 132.874,260.472 132.653,260.374 132.518 C 259.627 131.495,246.942 130.474,242.030 131.042 C 240.071 131.269,237.346 131.583,235.975 131.741 C 234.604 131.899,232.440 131.905,231.167 131.756 C 222.259 130.711,219.790 130.591,215.801 131.005 C 205.162 132.109,204.174 132.663,201.713 138.907 C 201.210 140.184,200.498 141.901,200.132 142.723 C 199.766 143.545,199.466 144.457,199.466 144.750 C 199.466 145.043,199.310 145.379,199.119 145.497 C 198.929 145.615,198.602 146.346,198.393 147.121 C 198.184 147.896,197.859 148.531,197.671 148.531 C 197.483 148.531,197.329 148.817,197.329 149.168 C 197.329 149.518,197.008 150.434,196.616 151.202 C 196.224 151.971,195.904 152.875,195.904 153.211 C 195.904 153.547,195.663 154.063,195.370 154.357 C 195.076 154.651,194.835 155.109,194.835 155.376 C 194.835 155.642,194.515 156.489,194.123 157.257 C 193.731 158.026,193.411 158.864,193.411 159.121 C 193.411 159.783,191.692 162.422,191.261 162.422 C 191.064 162.422,190.727 161.981,190.513 161.443 C 190.299 160.904,189.902 160.038,189.630 159.518 C 189.359 158.998,189.136 158.272,189.136 157.905 C 189.136 157.538,188.909 156.913,188.631 156.517 C 188.354 156.121,188.010 155.163,187.868 154.390 C 187.727 153.616,187.393 152.667,187.127 152.280 C 186.861 151.894,186.642 151.333,186.641 151.034 C 186.640 150.735,186.414 150.060,186.140 149.534 C 185.866 149.009,185.526 148.047,185.384 147.397 C 185.243 146.747,184.907 145.899,184.638 145.513 C 184.370 145.126,184.150 144.481,184.150 144.078 C 184.150 143.676,183.930 143.030,183.661 142.644 C 183.392 142.257,183.056 141.380,182.913 140.695 C 182.771 140.009,182.430 139.093,182.156 138.659 C 181.881 138.225,181.656 137.529,181.656 137.113 C 181.656 135.846,179.853 133.735,178.074 132.918 C 174.453 131.257,164.388 130.324,158.326 131.088 M105.229 131.766 C 102.055 133.100,101.267 148.255,104.140 152.694 L 104.898 153.865 110.175 153.869 C 113.122 153.872,115.756 154.036,116.141 154.242 C 117.083 154.747,117.227 190.346,116.296 192.575 C 116.002 193.278,115.761 194.122,115.761 194.450 C 115.761 195.813,112.533 199.121,110.156 200.194 C 107.889 201.217,100.685 201.363,99.238 200.415 C 98.740 200.089,98.109 199.822,97.834 199.822 C 97.560 199.822,96.903 199.481,96.373 199.065 C 94.953 197.948,93.724 198.090,92.524 199.510 C 91.089 201.210,91.033 201.295,90.505 202.582 C 90.243 203.219,89.888 203.740,89.716 203.740 C 89.544 203.740,89.403 204.069,89.403 204.472 C 89.403 204.874,89.103 205.876,88.736 206.698 C 87.071 210.428,87.082 216.495,88.758 218.541 C 93.412 224.224,99.763 226.328,112.199 226.305 C 120.957 226.289,124.588 225.462,130.630 222.108 C 131.069 221.864,131.723 221.398,132.083 221.073 C 132.442 220.747,132.901 220.481,133.102 220.481 C 133.827 220.481,138.304 215.727,138.984 214.236 C 139.204 213.753,139.519 213.357,139.683 213.357 C 139.848 213.357,139.982 213.192,139.982 212.989 C 139.982 212.787,140.250 212.026,140.577 211.298 C 141.276 209.738,142.009 206.912,142.496 203.887 C 142.712 202.547,142.809 188.862,142.750 168.076 L 142.654 134.433 141.763 133.323 C 141.273 132.712,140.552 132.089,140.160 131.938 C 139.157 131.552,106.126 131.389,105.229 131.766 " stroke="none" fill="#f9f9f9" fill-rule="evenodd"></path><path id="path1" d="M94.746 28.851 C 94.746 29.529,94.509 29.564,89.926 29.564 C 85.971 29.564,85.070 29.659,84.902 30.098 C 84.747 30.501,84.095 30.632,82.241 30.632 C 80.024 30.632,79.786 30.701,79.786 31.345 C 79.786 31.989,79.549 32.057,77.293 32.057 C 75.314 32.057,74.800 32.167,74.800 32.591 C 74.800 32.996,74.361 33.126,72.985 33.126 C 71.471 33.126,71.140 33.243,70.985 33.838 C 70.845 34.373,70.499 34.550,69.593 34.550 C 68.760 34.550,68.388 34.715,68.388 35.085 C 68.388 35.480,67.973 35.619,66.788 35.619 C 65.574 35.619,65.081 35.791,64.744 36.331 C 64.499 36.723,64.097 37.044,63.850 37.044 C 63.603 37.044,63.402 37.284,63.402 37.578 C 63.402 37.951,63.026 38.112,62.155 38.112 C 61.146 38.112,60.908 38.248,60.908 38.825 C 60.908 39.401,60.671 39.537,59.662 39.537 C 58.791 39.537,58.415 39.698,58.415 40.071 C 58.415 40.365,58.160 40.606,57.847 40.606 C 57.535 40.606,57.196 40.926,57.093 41.318 C 56.953 41.853,56.608 42.030,55.702 42.030 C 54.909 42.030,54.497 42.200,54.497 42.526 C 54.497 42.799,54.256 43.115,53.963 43.228 C 53.669 43.340,53.428 43.678,53.428 43.978 C 53.428 44.286,53.118 44.524,52.716 44.524 C 52.241 44.524,52.004 44.761,52.004 45.236 C 52.004 45.695,51.766 45.948,51.335 45.948 C 50.967 45.948,50.466 46.189,50.223 46.483 C 49.979 46.776,49.478 47.017,49.110 47.017 C 48.679 47.017,48.442 47.270,48.442 47.729 C 48.442 48.204,48.204 48.442,47.729 48.442 C 47.270 48.442,47.017 48.679,47.017 49.110 C 47.017 49.478,46.776 49.979,46.483 50.223 C 46.189 50.466,45.948 50.967,45.948 51.335 C 45.948 51.766,45.695 52.004,45.236 52.004 C 44.761 52.004,44.524 52.241,44.524 52.716 C 44.524 53.191,44.286 53.428,43.811 53.428 C 43.415 53.428,43.099 53.666,43.099 53.963 C 43.099 54.256,42.858 54.497,42.565 54.497 C 42.195 54.497,42.030 54.868,42.030 55.702 C 42.030 56.608,41.853 56.953,41.318 57.093 C 40.926 57.196,40.606 57.535,40.606 57.847 C 40.606 58.160,40.365 58.415,40.071 58.415 C 39.698 58.415,39.537 58.791,39.537 59.662 C 39.537 60.671,39.401 60.908,38.825 60.908 C 38.248 60.908,38.112 61.146,38.112 62.155 C 38.112 63.026,37.951 63.402,37.578 63.402 C 37.284 63.402,37.044 63.603,37.044 63.850 C 37.044 64.097,36.723 64.499,36.331 64.744 C 35.791 65.081,35.619 65.574,35.619 66.788 C 35.619 67.973,35.480 68.388,35.085 68.388 C 34.715 68.388,34.550 68.760,34.550 69.593 C 34.550 70.499,34.373 70.845,33.838 70.985 C 33.243 71.140,33.126 71.471,33.126 72.985 C 33.126 74.361,32.996 74.800,32.591 74.800 C 32.167 74.800,32.057 75.314,32.057 77.293 C 32.057 79.549,31.989 79.786,31.345 79.786 C 30.701 79.786,30.632 80.024,30.632 82.241 C 30.632 84.095,30.501 84.747,30.098 84.902 C 29.659 85.070,29.564 85.971,29.564 89.926 C 29.564 94.509,29.529 94.746,28.851 94.746 C 27.725 94.746,27.725 259.976,28.851 260.271 C 29.519 260.445,29.564 260.757,29.564 265.186 C 29.564 269.061,29.660 269.952,30.098 270.120 C 30.503 270.275,30.632 270.932,30.632 272.829 C 30.632 275.096,30.700 275.334,31.345 275.334 C 31.989 275.334,32.057 275.571,32.057 277.827 C 32.057 279.806,32.167 280.321,32.591 280.321 C 32.994 280.321,33.126 280.753,33.126 282.078 C 33.126 283.522,33.252 283.875,33.838 284.061 C 34.368 284.229,34.550 284.599,34.550 285.509 C 34.550 286.359,34.713 286.732,35.085 286.732 C 35.482 286.732,35.619 287.151,35.619 288.368 C 35.619 289.705,35.749 290.038,36.331 290.191 C 36.786 290.310,37.044 290.676,37.044 291.205 C 37.044 291.660,37.214 292.138,37.422 292.266 C 37.630 292.395,37.946 292.885,38.125 293.356 C 38.304 293.827,38.695 294.212,38.994 294.212 C 39.377 294.212,39.537 294.579,39.537 295.459 C 39.537 296.329,39.698 296.705,40.071 296.705 C 40.365 296.705,40.606 296.946,40.606 297.240 C 40.606 297.536,40.922 297.774,41.318 297.774 C 41.895 297.774,42.030 298.011,42.030 299.020 C 42.030 299.891,42.191 300.267,42.565 300.267 C 42.858 300.267,43.099 300.523,43.099 300.835 C 43.099 301.147,43.419 301.486,43.811 301.589 C 44.203 301.691,44.524 301.997,44.524 302.268 C 44.524 302.539,44.844 302.760,45.236 302.760 C 45.813 302.760,45.948 302.998,45.948 304.007 C 45.948 304.878,46.109 305.254,46.483 305.254 C 46.779 305.254,47.017 305.570,47.017 305.966 C 47.017 306.441,47.254 306.679,47.729 306.679 C 48.125 306.679,48.442 306.916,48.442 307.213 C 48.442 307.507,48.663 307.747,48.934 307.747 C 49.205 307.747,49.511 308.068,49.613 308.459 C 49.749 308.978,50.099 309.172,50.902 309.172 C 51.644 309.172,52.004 309.346,52.004 309.706 C 52.004 310.003,52.320 310.240,52.716 310.240 C 53.191 310.240,53.428 310.478,53.428 310.953 C 53.428 311.345,53.650 311.665,53.921 311.665 C 54.192 311.665,54.498 311.986,54.600 312.378 C 54.736 312.896,55.086 313.090,55.888 313.090 C 56.630 313.090,56.990 313.264,56.990 313.624 C 56.990 313.921,57.307 314.159,57.703 314.159 C 58.178 314.159,58.415 314.396,58.415 314.871 C 58.415 315.448,58.652 315.583,59.662 315.583 C 60.532 315.583,60.908 315.744,60.908 316.118 C 60.908 316.414,61.225 316.652,61.621 316.652 C 62.012 316.652,62.333 316.816,62.333 317.016 C 62.333 317.216,62.774 317.573,63.313 317.810 C 63.851 318.046,64.420 318.443,64.577 318.692 C 64.745 318.959,65.586 319.145,66.625 319.145 C 68.151 319.145,68.388 319.241,68.388 319.858 C 68.388 320.434,68.626 320.570,69.635 320.570 C 70.506 320.570,70.882 320.731,70.882 321.104 C 70.882 321.509,71.321 321.638,72.696 321.638 C 74.211 321.638,74.541 321.756,74.696 322.351 C 74.860 322.976,75.182 323.063,77.335 323.063 C 79.276 323.063,79.786 323.174,79.786 323.598 C 79.786 324.022,80.301 324.132,82.280 324.132 C 84.173 324.132,84.773 324.251,84.773 324.628 C 84.773 325.416,85.614 325.557,90.323 325.557 C 94.017 325.557,94.746 325.645,94.746 326.091 C 94.746 326.565,106.660 326.625,199.833 326.625 C 292.915 326.625,304.943 326.564,305.125 326.091 C 305.291 325.657,306.133 325.557,309.600 325.557 C 313.569 325.557,313.882 325.507,314.055 324.844 C 314.223 324.203,314.541 324.132,317.228 324.132 C 319.644 324.132,320.214 324.030,320.214 323.598 C 320.214 323.187,320.669 323.063,322.173 323.063 C 323.894 323.063,324.132 322.977,324.132 322.351 C 324.132 321.725,324.369 321.638,326.091 321.638 C 327.595 321.638,328.050 321.514,328.050 321.104 C 328.050 320.707,328.469 320.570,329.686 320.570 C 331.023 320.570,331.356 320.439,331.509 319.858 C 331.649 319.322,331.994 319.145,332.900 319.145 C 333.734 319.145,334.105 318.981,334.105 318.611 C 334.105 318.238,334.481 318.077,335.352 318.077 C 336.361 318.077,336.598 317.941,336.598 317.364 C 336.598 316.788,336.836 316.652,337.845 316.652 C 338.716 316.652,339.092 316.491,339.092 316.118 C 339.092 315.821,339.408 315.583,339.804 315.583 C 340.279 315.583,340.516 315.346,340.516 314.871 C 340.516 314.294,340.754 314.159,341.763 314.159 C 342.634 314.159,343.010 313.997,343.010 313.624 C 343.010 313.330,343.250 313.090,343.544 313.090 C 343.841 313.090,344.078 312.773,344.078 312.378 C 344.078 311.801,344.316 311.665,345.325 311.665 C 346.334 311.665,346.572 311.529,346.572 310.953 C 346.572 310.478,346.809 310.240,347.284 310.240 C 347.680 310.240,347.996 310.003,347.996 309.706 C 347.996 309.412,348.237 309.172,348.531 309.172 C 348.828 309.172,349.065 308.855,349.065 308.459 C 349.065 307.985,349.302 307.747,349.777 307.747 C 350.173 307.747,350.490 307.510,350.490 307.213 C 350.490 306.919,350.730 306.679,351.024 306.679 C 351.321 306.679,351.558 306.362,351.558 305.966 C 351.558 305.491,351.796 305.254,352.271 305.254 C 352.663 305.254,352.983 305.032,352.983 304.761 C 352.983 304.490,353.304 304.184,353.695 304.082 C 354.087 303.980,354.408 303.640,354.408 303.328 C 354.408 303.016,354.648 302.760,354.942 302.760 C 355.315 302.760,355.476 302.384,355.476 301.514 C 355.476 300.505,355.612 300.267,356.189 300.267 C 356.585 300.267,356.901 300.030,356.901 299.733 C 356.901 299.439,357.142 299.199,357.435 299.199 C 357.809 299.199,357.970 298.823,357.970 297.952 C 357.970 296.943,358.105 296.705,358.682 296.705 C 359.157 296.705,359.394 296.468,359.394 295.993 C 359.394 295.597,359.632 295.280,359.929 295.280 C 360.302 295.280,360.463 294.905,360.463 294.034 C 360.463 293.025,360.599 292.787,361.175 292.787 C 361.752 292.787,361.888 292.550,361.888 291.541 C 361.888 290.670,362.049 290.294,362.422 290.294 C 362.795 290.294,362.956 289.918,362.956 289.047 C 362.956 288.038,363.092 287.801,363.669 287.801 C 364.241 287.801,364.381 287.563,364.381 286.592 C 364.381 285.846,364.586 285.305,364.915 285.178 C 365.292 285.034,365.450 284.446,365.450 283.181 C 365.450 281.627,365.544 281.389,366.162 281.389 C 366.807 281.389,366.874 281.152,366.874 278.896 C 366.874 276.917,366.985 276.402,367.409 276.402 C 367.833 276.402,367.943 275.888,367.943 273.909 C 367.943 271.653,368.011 271.416,368.655 271.416 C 369.323 271.416,369.368 271.178,369.368 267.676 C 369.368 264.589,369.461 263.936,369.902 263.936 C 370.376 263.936,370.436 254.081,370.436 177.382 C 370.436 100.683,370.376 90.828,369.902 90.828 C 369.462 90.828,369.368 90.191,369.368 87.233 C 369.368 83.937,369.308 83.622,368.655 83.451 C 368.030 83.288,367.943 82.966,367.943 80.813 C 367.943 78.871,367.832 78.362,367.409 78.362 C 366.985 78.362,366.874 77.847,366.874 75.868 C 366.874 73.612,366.807 73.375,366.162 73.375 C 365.545 73.375,365.450 73.137,365.450 71.594 C 365.450 70.248,365.319 69.813,364.915 69.813 C 364.540 69.813,364.381 69.433,364.381 68.533 C 364.381 67.553,364.214 67.209,363.669 67.067 C 363.133 66.927,362.956 66.581,362.956 65.675 C 362.956 64.842,362.792 64.470,362.422 64.470 C 362.062 64.470,361.888 64.110,361.888 63.368 C 361.888 62.566,361.694 62.216,361.175 62.080 C 360.640 61.940,360.463 61.594,360.463 60.689 C 360.463 59.855,360.298 59.484,359.929 59.484 C 359.635 59.484,359.394 59.243,359.394 58.949 C 359.394 58.652,359.078 58.415,358.682 58.415 C 358.105 58.415,357.970 58.178,357.970 57.168 C 357.970 56.344,357.803 55.922,357.477 55.922 C 357.206 55.922,356.900 55.601,356.798 55.209 C 356.695 54.817,356.356 54.497,356.044 54.497 C 355.649 54.497,355.476 54.168,355.476 53.417 C 355.476 52.786,355.254 52.252,354.942 52.132 C 354.648 52.020,354.408 51.704,354.408 51.431 C 354.408 51.158,354.087 50.935,353.695 50.935 C 353.221 50.935,352.983 50.698,352.983 50.223 C 352.983 49.748,352.746 49.510,352.271 49.510 C 351.875 49.510,351.558 49.273,351.558 48.976 C 351.558 48.682,351.318 48.442,351.024 48.442 C 350.727 48.442,350.490 48.125,350.490 47.729 C 350.490 47.254,350.252 47.017,349.777 47.017 C 349.382 47.017,349.065 46.779,349.065 46.483 C 349.065 46.189,348.825 45.948,348.531 45.948 C 348.234 45.948,347.996 45.632,347.996 45.236 C 347.996 44.761,347.759 44.524,347.284 44.524 C 346.892 44.524,346.572 44.301,346.572 44.029 C 346.572 43.746,346.039 43.434,345.325 43.300 C 344.579 43.160,344.078 42.859,344.078 42.548 C 344.078 42.263,343.857 42.030,343.586 42.030 C 343.315 42.030,343.009 41.710,342.907 41.318 C 342.771 40.799,342.421 40.606,341.618 40.606 C 340.876 40.606,340.516 40.431,340.516 40.071 C 340.516 39.777,340.215 39.537,339.846 39.537 C 339.474 39.537,339.092 39.219,338.989 38.825 C 338.853 38.306,338.503 38.112,337.700 38.112 C 336.958 38.112,336.598 37.938,336.598 37.578 C 336.598 37.205,336.222 37.044,335.352 37.044 C 334.343 37.044,334.105 36.908,334.105 36.331 C 334.105 35.755,333.868 35.619,332.858 35.619 C 331.988 35.619,331.612 35.458,331.612 35.085 C 331.612 34.683,331.181 34.550,329.872 34.550 C 328.433 34.550,328.101 34.428,327.947 33.838 C 327.791 33.243,327.461 33.126,325.946 33.126 C 324.571 33.126,324.132 32.996,324.132 32.591 C 324.132 32.183,323.681 32.057,322.214 32.057 C 320.596 32.057,320.268 31.946,320.111 31.345 C 319.944 30.706,319.625 30.632,317.041 30.632 C 314.716 30.632,314.159 30.529,314.159 30.098 C 314.159 29.652,313.426 29.564,309.706 29.564 C 306.153 29.564,305.254 29.464,305.254 29.071 C 305.254 28.160,303.926 28.149,199.199 28.144 C 94.982 28.139,94.746 28.141,94.746 28.851 M175.067 130.850 C 175.654 131.168,176.569 131.430,177.099 131.431 C 178.775 131.435,182.369 134.493,182.369 135.915 C 182.369 136.148,182.608 136.798,182.901 137.359 C 183.193 137.920,183.434 138.704,183.435 139.102 C 183.436 139.499,183.657 140.140,183.926 140.526 C 184.195 140.913,184.536 141.790,184.684 142.476 C 184.832 143.161,185.173 144.038,185.442 144.425 C 185.711 144.811,185.931 145.428,185.931 145.795 C 185.931 146.162,186.158 146.887,186.436 147.407 C 186.959 148.385,187.883 151.042,188.409 153.082 C 188.574 153.724,188.871 154.446,189.069 154.685 C 189.267 154.924,189.540 155.716,189.676 156.443 C 189.812 157.171,190.147 157.952,190.420 158.179 C 190.694 158.406,190.917 159.043,190.917 159.595 C 190.917 160.904,191.490 161.244,191.776 160.104 C 191.899 159.616,192.157 159.216,192.349 159.216 C 192.541 159.216,192.698 158.807,192.698 158.307 C 192.698 157.808,192.996 156.806,193.360 156.081 C 194.925 152.966,195.191 152.368,195.191 151.969 C 195.191 151.738,195.512 150.950,195.904 150.219 C 196.296 149.488,196.616 148.588,196.616 148.219 C 196.616 147.851,196.857 147.350,197.150 147.106 C 197.444 146.862,197.685 146.419,197.685 146.122 C 197.685 145.622,198.458 143.747,199.678 141.289 C 199.953 140.734,200.178 140.091,200.178 139.859 C 200.178 139.627,200.474 138.879,200.836 138.196 C 201.198 137.513,201.601 136.514,201.733 135.975 C 201.865 135.436,202.130 134.996,202.322 134.996 C 202.514 134.996,202.671 134.806,202.671 134.573 C 202.671 134.009,204.110 132.502,204.649 132.502 C 204.885 132.502,205.277 132.262,205.521 131.968 C 205.765 131.674,206.385 131.433,206.900 131.431 C 207.415 131.430,208.317 131.152,208.905 130.812 C 210.347 129.980,229.683 129.872,232.127 130.683 C 233.406 131.107,233.794 131.107,234.799 130.683 C 236.745 129.862,256.594 129.970,258.130 130.810 C 258.757 131.153,259.672 131.434,260.162 131.434 C 262.365 131.434,266.073 135.474,266.073 137.874 C 266.073 138.158,266.394 138.988,266.785 139.719 C 267.177 140.450,267.498 141.430,267.498 141.896 C 267.498 142.363,267.718 142.927,267.988 143.151 C 268.257 143.375,268.582 144.212,268.710 145.011 C 268.838 145.810,269.178 146.700,269.467 146.989 C 269.755 147.277,269.991 148.043,269.991 148.691 C 269.991 149.338,270.227 150.064,270.516 150.304 C 270.805 150.543,271.148 151.324,271.279 152.039 C 271.410 152.754,271.735 153.655,272.001 154.042 C 272.267 154.428,272.484 155.076,272.484 155.480 C 272.484 155.885,272.805 156.845,273.197 157.614 C 273.589 158.382,273.909 159.298,273.909 159.648 C 273.909 160.828,275.102 160.233,275.488 158.860 C 275.742 157.959,276.074 157.163,277.433 154.191 C 277.846 153.288,278.183 152.297,278.183 151.990 C 278.183 151.683,278.399 151.215,278.663 150.952 C 278.927 150.688,279.255 149.875,279.392 149.145 C 279.528 148.415,279.774 147.818,279.938 147.818 C 280.102 147.818,280.418 147.097,280.640 146.215 C 280.862 145.334,281.201 144.613,281.394 144.613 C 281.587 144.613,281.746 144.252,281.747 143.811 C 281.747 143.370,282.068 142.485,282.459 141.844 C 282.850 141.202,283.170 140.380,283.170 140.017 C 283.170 139.654,283.391 139.174,283.660 138.951 C 283.929 138.727,284.248 137.927,284.369 137.172 C 284.490 136.418,284.830 135.600,285.126 135.354 C 285.422 135.109,285.663 134.723,285.663 134.497 C 285.663 133.717,288.902 131.434,290.012 131.431 C 290.461 131.430,291.309 131.153,291.897 130.815 C 293.742 129.754,313.694 129.930,316.028 131.027 C 317.955 131.934,318.174 132.701,317.008 134.461 C 316.619 135.049,316.299 135.815,316.298 136.164 C 316.297 136.513,316.055 136.891,315.761 137.004 C 315.467 137.117,315.226 137.472,315.225 137.794 C 315.223 138.116,314.904 138.860,314.515 139.448 C 314.125 140.036,313.806 140.802,313.805 141.151 C 313.803 141.500,313.562 141.878,313.268 141.991 C 312.974 142.103,312.736 142.379,312.738 142.603 C 312.745 143.150,308.382 151.883,308.027 152.033 C 307.873 152.099,307.747 152.348,307.747 152.587 C 307.747 153.182,304.495 159.722,304.126 159.869 C 303.963 159.935,303.829 160.356,303.829 160.805 C 303.829 161.255,303.599 161.813,303.318 162.047 C 303.036 162.280,302.706 162.930,302.582 163.491 C 302.459 164.051,302.128 164.701,301.847 164.934 C 301.566 165.168,301.336 165.640,301.336 165.984 C 301.336 166.328,301.106 166.800,300.824 167.034 C 300.543 167.267,300.212 167.917,300.089 168.477 C 299.966 169.038,299.635 169.688,299.354 169.921 C 299.073 170.154,298.842 170.627,298.842 170.971 C 298.842 171.314,298.612 171.787,298.331 172.020 C 298.050 172.254,297.719 172.903,297.596 173.464 C 297.473 174.025,297.152 174.666,296.883 174.889 C 296.615 175.112,296.292 175.764,296.166 176.338 C 296.039 176.912,295.801 177.382,295.637 177.382 C 295.472 177.382,295.234 177.852,295.108 178.426 C 294.982 179.000,294.648 179.661,294.367 179.894 C 294.086 180.128,293.856 180.608,293.856 180.962 C 293.856 181.316,293.623 181.838,293.339 182.122 C 293.055 182.406,292.719 183.052,292.592 183.558 C 292.465 184.063,292.136 184.663,291.862 184.891 C 291.587 185.119,291.362 185.595,291.362 185.949 C 291.362 186.303,291.082 186.872,290.739 187.215 C 290.167 187.786,290.101 189.290,289.938 205.374 L 289.760 222.910 288.705 223.744 C 287.733 224.512,286.393 224.971,282.636 225.825 C 280.772 226.249,266.970 226.258,265.361 225.837 C 261.754 224.893,260.936 224.582,260.157 223.860 L 259.305 223.071 259.305 206.503 C 259.305 192.541,259.225 189.869,258.794 189.511 C 258.513 189.278,258.179 188.617,258.053 188.043 C 257.927 187.469,257.680 186.999,257.503 186.999 C 257.326 186.999,257.074 186.558,256.943 186.020 C 256.811 185.481,256.407 184.658,256.045 184.191 C 255.683 183.723,255.387 183.059,255.387 182.715 C 255.387 182.370,255.147 181.996,254.853 181.884 C 254.559 181.771,254.319 181.309,254.319 180.856 C 254.319 180.404,253.998 179.759,253.606 179.424 C 253.215 179.088,252.894 178.501,252.894 178.119 C 252.894 177.737,252.755 177.338,252.584 177.233 C 252.414 177.127,251.835 176.116,251.298 174.985 C 250.761 173.855,250.189 172.689,250.027 172.395 C 249.568 171.562,247.995 168.359,247.752 167.765 C 247.632 167.471,246.897 166.109,246.118 164.737 C 245.340 163.366,244.612 161.994,244.501 161.689 C 244.389 161.384,243.868 160.307,243.342 159.296 C 242.817 158.284,240.957 154.639,239.210 151.196 C 237.462 147.753,235.900 144.854,235.737 144.754 C 235.574 144.653,235.441 144.279,235.441 143.923 C 235.441 143.567,235.211 143.084,234.929 142.851 C 234.648 142.617,234.315 141.957,234.189 141.382 C 234.063 140.808,233.828 140.338,233.666 140.338 C 233.505 140.338,233.202 139.846,232.992 139.243 C 232.490 137.804,232.137 138.089,230.623 141.158 C 229.927 142.568,229.222 143.963,229.055 144.256 C 228.889 144.550,228.299 145.752,227.745 146.928 C 227.190 148.103,226.611 149.118,226.458 149.184 C 226.305 149.249,226.180 149.588,226.180 149.937 C 226.180 150.286,225.859 150.979,225.467 151.477 C 225.076 151.976,224.755 152.619,224.755 152.907 C 224.755 153.195,224.515 153.630,224.221 153.874 C 223.927 154.117,223.687 154.596,223.687 154.938 C 223.687 155.279,223.390 155.941,223.028 156.408 C 222.667 156.875,222.263 157.698,222.131 158.237 C 222.000 158.776,221.735 159.216,221.543 159.216 C 221.350 159.216,221.193 159.419,221.193 159.667 C 221.193 159.915,220.873 160.716,220.481 161.447 C 220.089 162.178,219.768 163.022,219.768 163.322 C 219.768 163.623,219.528 163.961,219.234 164.074 C 218.940 164.187,218.700 164.479,218.700 164.724 C 218.700 164.968,218.059 166.434,217.277 167.980 C 216.494 169.527,215.853 170.980,215.852 171.208 C 215.851 171.437,215.717 171.677,215.555 171.742 C 215.392 171.808,214.757 172.929,214.145 174.235 C 213.532 175.541,212.863 176.713,212.659 176.839 C 212.455 176.965,212.289 177.450,212.289 177.916 C 212.289 178.383,212.121 178.868,211.917 178.994 C 211.713 179.120,211.295 179.851,210.988 180.618 C 210.681 181.385,210.287 182.012,210.113 182.012 C 209.938 182.012,209.795 182.348,209.795 182.758 C 209.795 183.168,209.475 183.910,209.083 184.409 C 208.691 184.907,208.370 185.560,208.370 185.861 C 208.370 186.162,208.090 186.718,207.747 187.097 C 207.177 187.727,207.109 189.252,206.946 204.935 C 206.816 217.409,206.650 222.288,206.337 222.835 C 205.736 223.883,204.444 224.659,202.813 224.954 C 202.049 225.091,201.200 225.384,200.925 225.603 C 200.222 226.164,181.604 226.159,180.910 225.598 C 180.635 225.375,179.849 225.077,179.163 224.935 C 175.805 224.237,175.806 224.244,175.601 205.165 L 175.423 188.602 174.283 186.643 C 173.656 185.565,172.728 183.802,172.221 182.725 C 171.715 181.647,171.157 180.525,170.982 180.232 C 170.807 179.938,169.592 177.571,168.282 174.973 C 166.972 172.374,165.758 170.161,165.586 170.054 C 165.413 169.947,165.272 169.569,165.272 169.212 C 165.272 168.856,165.041 168.374,164.760 168.140 C 164.479 167.907,164.148 167.257,164.025 166.696 C 163.902 166.136,163.571 165.486,163.290 165.253 C 163.008 165.019,162.778 164.593,162.778 164.305 C 162.778 164.017,162.458 163.374,162.066 162.875 C 161.674 162.377,161.354 161.671,161.354 161.305 C 161.354 160.940,161.196 160.641,161.004 160.641 C 160.812 160.641,160.547 160.200,160.416 159.662 C 160.284 159.123,159.880 158.300,159.518 157.833 C 159.156 157.365,158.860 156.701,158.860 156.357 C 158.860 156.013,158.620 155.638,158.326 155.526 C 158.032 155.413,157.792 155.020,157.792 154.652 C 157.792 154.284,157.471 153.613,157.079 153.161 C 156.687 152.709,156.367 152.063,156.367 151.726 C 156.367 151.388,156.137 150.920,155.855 150.687 C 155.574 150.453,155.241 149.793,155.115 149.218 C 154.989 148.644,154.741 148.175,154.564 148.175 C 154.388 148.175,154.138 147.734,154.009 147.195 C 153.881 146.656,153.637 146.038,153.468 145.822 C 152.813 144.986,151.380 142.056,151.380 141.555 C 151.380 141.265,151.150 140.940,150.868 140.832 C 150.586 140.724,150.255 140.179,150.132 139.621 C 150.010 139.063,149.680 138.416,149.398 138.182 C 149.117 137.949,148.887 137.477,148.887 137.133 C 148.887 136.789,148.664 136.323,148.392 136.097 C 147.661 135.491,146.972 132.493,147.453 132.013 C 149.255 130.211,172.114 129.248,175.067 130.850 M140.431 130.988 C 141.068 131.331,141.989 132.012,142.478 132.502 L 143.366 133.392 143.464 167.830 C 143.517 186.771,143.417 203.601,143.240 205.230 C 142.575 211.370,140.118 215.772,134.609 220.690 C 134.299 220.967,133.876 221.193,133.668 221.193 C 133.461 221.193,133.212 221.398,133.116 221.648 C 133.020 221.898,132.038 222.560,130.933 223.119 C 129.829 223.678,128.839 224.275,128.734 224.445 C 128.628 224.616,128.271 224.761,127.940 224.767 C 127.609 224.774,126.696 225.089,125.913 225.467 C 125.129 225.846,124.042 226.161,123.496 226.168 C 122.950 226.174,122.094 226.449,121.592 226.777 C 120.254 227.654,103.658 227.639,101.956 226.759 C 101.341 226.440,100.306 226.180,99.656 226.180 C 99.007 226.180,97.878 225.859,97.147 225.467 C 96.415 225.076,95.506 224.755,95.125 224.755 C 94.744 224.755,94.332 224.592,94.209 224.394 C 94.086 224.195,93.462 223.813,92.823 223.546 C 91.482 222.986,87.624 219.349,87.620 218.642 C 87.619 218.380,87.299 217.685,86.910 217.097 C 83.904 212.558,91.771 193.692,95.228 197.149 C 95.471 197.392,96.009 197.698,96.423 197.830 C 96.837 197.961,97.370 198.303,97.607 198.589 C 97.845 198.875,98.380 199.111,98.797 199.112 C 99.214 199.113,100.014 199.353,100.575 199.646 C 101.926 200.350,107.048 200.349,108.281 199.644 C 108.771 199.364,109.500 199.129,109.900 199.122 C 111.980 199.086,114.783 194.940,115.374 191.027 C 116.049 186.560,115.896 155.070,115.198 154.802 C 114.888 154.683,112.274 154.586,109.388 154.586 L 104.141 154.586 103.362 153.532 C 102.933 152.952,102.582 152.223,102.582 151.911 C 102.582 151.600,102.302 150.832,101.959 150.205 C 101.043 148.530,101.048 136.773,101.965 135.174 C 102.302 134.586,102.579 133.792,102.580 133.410 C 102.581 133.027,103.095 132.186,103.721 131.540 L 104.859 130.365 122.066 130.365 C 137.774 130.365,139.373 130.419,140.431 130.988 " stroke="none" fill="#1c1c1c" fill-rule="evenodd"></path><path id="path2" d="M158.326 130.580 C 155.616 130.862,148.766 131.858,148.293 132.040 C 147.336 132.407,147.966 133.959,153.331 144.435 C 156.341 150.312,159.867 157.204,161.166 159.751 C 162.464 162.297,163.655 164.622,163.811 164.915 C 164.914 166.995,166.899 170.872,170.692 178.358 C 173.098 183.106,175.418 187.674,175.847 188.509 C 176.616 190.004,176.628 190.273,176.649 206.325 L 176.670 222.623 177.583 223.422 C 180.945 226.365,200.049 226.518,204.708 223.639 L 205.877 222.916 205.877 206.272 L 205.877 189.628 207.163 186.978 C 209.116 182.953,211.232 178.692,211.573 178.094 C 211.965 177.406,227.735 145.659,227.930 145.164 C 228.011 144.959,227.820 145.002,227.507 145.261 C 227.194 145.519,226.835 146.200,226.709 146.774 C 226.583 147.349,226.335 147.818,226.158 147.818 C 225.982 147.818,225.730 148.259,225.598 148.798 C 225.467 149.337,225.063 150.160,224.701 150.627 C 224.339 151.094,224.043 151.775,224.043 152.141 C 224.043 152.506,223.886 152.805,223.693 152.805 C 223.501 152.805,223.236 153.246,223.105 153.785 C 222.973 154.323,222.569 155.146,222.207 155.613 C 221.846 156.081,221.549 156.749,221.549 157.098 C 221.549 157.447,221.416 157.786,221.254 157.851 C 221.091 157.916,220.524 158.931,219.994 160.107 C 219.463 161.282,218.881 162.484,218.701 162.778 C 218.521 163.072,217.960 164.194,217.454 165.272 C 216.949 166.349,216.388 167.471,216.208 167.765 C 215.559 168.822,214.069 172.002,214.069 172.330 C 214.069 172.514,213.829 172.864,213.535 173.108 C 213.241 173.352,213.001 173.832,213.001 174.176 C 213.001 174.520,212.771 174.992,212.490 175.226 C 212.208 175.459,211.877 176.109,211.754 176.670 C 211.631 177.230,211.300 177.880,211.019 178.113 C 210.738 178.347,210.508 178.814,210.508 179.152 C 210.508 179.490,210.187 180.136,209.795 180.588 C 209.403 181.039,209.083 181.686,209.083 182.023 C 209.083 182.361,208.842 182.837,208.549 183.081 C 208.255 183.325,208.014 183.741,208.014 184.006 C 208.014 184.271,207.453 185.527,206.768 186.797 L 205.521 189.106 205.521 205.833 L 205.521 222.560 204.266 223.336 C 203.550 223.778,201.980 224.244,200.615 224.419 C 199.297 224.588,197.356 224.893,196.300 225.097 C 191.547 226.015,180.329 224.921,178.081 223.321 L 177.026 222.569 177.026 206.264 L 177.026 189.959 173.090 182.172 C 170.926 177.889,169.022 174.218,168.860 174.014 C 168.697 173.809,168.443 173.241,168.295 172.752 C 168.146 172.262,167.926 171.781,167.806 171.683 C 167.685 171.585,167.122 170.543,166.554 169.368 C 165.986 168.192,165.327 166.990,165.088 166.696 C 164.850 166.402,164.550 165.721,164.422 165.183 C 164.294 164.644,164.032 164.203,163.840 164.203 C 163.648 164.203,163.491 163.904,163.491 163.539 C 163.491 163.173,163.170 162.467,162.778 161.969 C 162.386 161.471,162.066 160.827,162.066 160.540 C 162.066 160.252,161.836 159.825,161.555 159.592 C 161.273 159.358,160.942 158.708,160.819 158.148 C 160.696 157.587,160.365 156.937,160.084 156.704 C 159.803 156.471,159.573 156.044,159.573 155.756 C 159.573 155.468,159.252 154.825,158.860 154.327 C 158.468 153.829,158.148 153.132,158.148 152.778 C 158.148 152.424,158.010 152.050,157.842 151.946 C 157.674 151.842,156.192 149.068,154.548 145.781 C 152.903 142.493,151.460 139.724,151.339 139.626 C 151.219 139.528,150.999 139.047,150.850 138.557 C 150.702 138.068,150.413 137.458,150.209 137.203 C 147.628 133.982,147.935 132.272,151.146 131.979 C 152.548 131.851,154.577 131.593,155.654 131.406 C 165.298 129.731,178.296 131.546,180.586 134.888 C 181.035 135.544,181.482 136.001,181.579 135.904 C 181.916 135.567,179.875 133.266,178.721 132.682 C 175.681 131.144,164.247 129.965,158.326 130.580 M213.535 130.707 C 205.364 131.681,203.704 132.790,201.247 138.914 C 200.815 139.991,200.259 141.354,200.012 141.941 C 199.765 142.529,199.199 143.891,198.753 144.969 C 197.335 148.400,197.065 149.030,196.298 150.707 C 195.885 151.610,195.548 152.519,195.548 152.726 C 195.548 152.934,195.311 153.557,195.023 154.112 C 194.734 154.666,194.269 155.681,193.989 156.367 C 191.736 161.883,191.276 162.479,190.619 160.730 C 190.417 160.191,189.830 158.629,189.315 157.257 C 188.801 155.886,188.242 154.283,188.074 153.695 C 187.905 153.108,187.346 151.505,186.831 150.134 C 186.316 148.762,185.759 147.240,185.592 146.750 C 184.897 144.701,184.178 143.362,184.164 144.088 C 184.156 144.485,184.370 145.126,184.638 145.513 C 184.907 145.899,185.243 146.747,185.384 147.397 C 185.526 148.047,185.866 149.009,186.140 149.534 C 186.414 150.060,186.640 150.735,186.641 151.034 C 186.642 151.333,186.861 151.894,187.127 152.280 C 187.393 152.667,187.727 153.616,187.868 154.390 C 188.010 155.163,188.354 156.121,188.631 156.517 C 188.909 156.913,189.136 157.538,189.136 157.905 C 189.136 158.272,189.359 158.998,189.630 159.518 C 189.902 160.038,190.299 160.904,190.513 161.443 C 190.727 161.981,191.064 162.422,191.261 162.422 C 191.692 162.422,193.411 159.783,193.411 159.121 C 193.411 158.864,193.731 158.026,194.123 157.257 C 194.515 156.489,194.835 155.642,194.835 155.376 C 194.835 155.109,195.076 154.651,195.370 154.357 C 195.663 154.063,195.904 153.547,195.904 153.211 C 195.904 152.875,196.224 151.971,196.616 151.202 C 197.008 150.434,197.329 149.518,197.329 149.168 C 197.329 148.817,197.483 148.531,197.671 148.531 C 197.859 148.531,198.184 147.896,198.393 147.121 C 198.602 146.346,198.929 145.615,199.119 145.497 C 199.310 145.379,199.466 145.043,199.466 144.750 C 199.466 144.457,199.766 143.545,200.132 142.723 C 200.498 141.901,201.210 140.184,201.713 138.907 C 204.174 132.663,205.162 132.109,215.801 131.005 C 219.790 130.591,222.259 130.711,231.167 131.756 C 232.440 131.905,234.604 131.899,235.975 131.741 C 237.346 131.583,240.071 131.269,242.030 131.042 C 246.942 130.474,259.627 131.495,260.374 132.518 C 260.472 132.653,260.910 132.874,261.349 133.011 C 262.401 133.339,264.289 135.250,264.304 136.002 C 264.311 136.330,264.626 137.240,265.004 138.023 C 265.383 138.807,265.698 139.698,265.705 140.003 C 265.711 140.309,265.952 140.870,266.240 141.250 C 266.527 141.630,266.773 142.262,266.786 142.654 C 266.799 143.045,267.119 144.007,267.498 144.791 C 267.876 145.574,268.191 146.546,268.198 146.949 C 268.205 147.352,268.445 147.993,268.733 148.374 C 269.021 148.754,269.268 149.386,269.282 149.777 C 269.297 150.169,269.631 151.051,270.026 151.736 C 270.420 152.422,270.664 152.663,270.569 152.271 C 270.345 151.354,269.356 148.561,268.930 147.640 C 268.748 147.248,268.442 146.367,268.249 145.681 C 267.868 144.331,266.947 141.660,266.467 140.516 C 265.648 138.563,264.647 135.833,264.637 135.523 C 264.512 131.655,250.544 129.374,237.278 131.055 C 233.931 131.479,232.711 131.491,230.155 131.120 C 226.241 130.554,216.794 130.319,213.535 130.707 M297.596 130.580 C 290.066 131.363,286.995 132.798,285.482 136.242 C 285.138 137.026,284.567 138.308,284.212 139.092 C 283.858 139.875,283.461 140.959,283.330 141.499 C 283.198 142.040,282.949 142.570,282.774 142.678 C 282.600 142.786,282.458 143.044,282.458 143.253 C 282.458 143.491,282.655 143.468,282.992 143.188 C 283.286 142.944,283.526 142.501,283.526 142.204 C 283.526 141.906,283.847 140.964,284.239 140.110 C 284.630 139.256,285.272 137.859,285.663 137.005 C 286.055 136.151,286.376 135.349,286.376 135.224 C 286.376 132.086,301.946 129.663,311.309 131.344 C 312.582 131.572,314.381 131.855,315.306 131.973 L 316.988 132.187 316.285 133.497 C 315.899 134.217,315.583 135.010,315.583 135.257 C 315.583 135.505,315.426 135.708,315.234 135.708 C 315.042 135.708,314.780 136.149,314.652 136.687 C 314.524 137.226,314.219 137.907,313.975 138.201 C 313.730 138.495,313.410 139.129,313.263 139.609 C 313.116 140.090,312.777 140.703,312.509 140.971 C 312.241 141.239,312.021 141.747,312.021 142.101 C 312.021 142.455,311.781 142.944,311.487 143.188 C 311.193 143.432,310.953 143.782,310.953 143.966 C 310.953 144.308,309.415 147.569,308.801 148.531 C 308.613 148.825,308.299 149.466,308.104 149.955 C 307.909 150.445,307.598 151.086,307.414 151.380 C 307.230 151.674,306.659 152.796,306.144 153.874 C 305.629 154.951,305.071 156.073,304.902 156.367 C 304.734 156.661,301.017 164.114,296.644 172.930 L 288.691 188.958 288.589 205.773 L 288.487 222.588 287.488 223.299 C 285.148 224.965,273.385 225.946,267.570 224.959 C 265.669 224.637,263.609 224.294,262.992 224.198 C 262.375 224.102,261.674 223.788,261.435 223.499 C 261.195 223.210,260.778 222.974,260.508 222.974 C 260.099 222.974,260.018 220.239,260.018 206.389 L 260.018 189.805 259.068 187.778 C 258.546 186.664,257.997 185.671,257.850 185.571 C 257.702 185.471,257.472 184.957,257.340 184.428 C 257.207 183.899,256.874 183.280,256.599 183.052 C 256.324 182.824,256.100 182.369,256.100 182.040 C 256.100 181.711,255.949 181.290,255.764 181.104 C 255.475 180.813,249.113 168.530,247.655 165.450 C 247.377 164.862,247.009 164.141,246.838 163.847 C 246.666 163.553,245.459 161.189,244.155 158.593 C 242.851 155.997,241.639 153.784,241.462 153.674 C 241.285 153.565,241.140 153.189,241.140 152.838 C 241.140 152.488,240.819 151.832,240.427 151.380 C 240.036 150.928,239.715 150.272,239.715 149.922 C 239.715 149.572,239.576 149.199,239.405 149.094 C 239.235 148.988,238.656 147.977,238.119 146.846 C 237.582 145.716,237.007 144.550,236.842 144.256 C 236.677 143.963,236.025 142.680,235.394 141.407 C 234.763 140.134,234.127 139.010,233.981 138.910 C 233.836 138.810,233.606 138.289,233.471 137.752 C 233.188 136.625,232.254 136.461,231.467 137.400 C 230.723 138.289,227.818 144.232,228.026 144.441 C 228.122 144.536,228.954 143.106,229.876 141.262 C 231.508 137.995,232.571 136.577,232.836 137.311 C 232.978 137.703,238.348 148.272,242.882 157.079 C 243.033 157.373,243.446 158.175,243.798 158.860 C 245.411 161.994,254.002 178.860,256.680 184.150 L 259.655 190.027 259.658 206.471 L 259.662 222.916 260.823 223.634 C 265.545 226.552,284.240 226.354,288.157 223.344 L 289.047 222.659 289.229 205.453 L 289.410 188.246 292.726 181.656 C 294.550 178.032,296.219 174.746,296.436 174.354 C 296.653 173.963,298.900 169.475,301.430 164.381 C 303.960 159.288,308.578 149.997,311.692 143.735 C 314.807 137.474,317.227 132.222,317.070 132.065 C 316.140 131.136,302.362 130.085,297.596 130.580 M104.073 132.077 C 101.289 135.061,101.144 148.769,103.852 152.894 L 104.730 154.230 109.800 154.235 C 112.589 154.237,115.232 154.336,115.672 154.454 L 116.474 154.669 116.474 172.468 C 116.474 189.780,116.452 190.340,115.686 192.978 C 114.465 197.179,111.580 199.813,107.391 200.550 L 105.966 200.801 107.257 200.846 C 110.215 200.948,115.761 196.777,115.761 194.450 C 115.761 194.122,116.002 193.278,116.296 192.575 C 117.227 190.346,117.083 154.747,116.141 154.242 C 115.756 154.036,113.122 153.872,110.175 153.869 L 104.898 153.865 104.140 152.694 C 101.808 149.091,101.845 135.579,104.195 132.632 L 105.008 131.612 121.694 131.612 C 139.933 131.612,140.453 131.656,141.763 133.309 L 142.654 134.433 142.750 168.076 C 142.809 188.862,142.712 202.547,142.496 203.887 C 142.009 206.912,141.276 209.738,140.577 211.298 C 140.250 212.026,139.982 212.787,139.982 212.989 C 139.982 213.192,139.848 213.357,139.683 213.357 C 139.519 213.357,139.204 213.753,138.984 214.236 C 138.304 215.727,133.827 220.481,133.102 220.481 C 132.901 220.481,132.442 220.747,132.083 221.073 C 131.723 221.398,131.069 221.864,130.630 222.108 C 124.588 225.462,120.957 226.289,112.199 226.305 C 99.763 226.328,93.412 224.224,88.758 218.541 C 87.082 216.495,87.071 210.428,88.736 206.698 C 89.103 205.876,89.403 204.874,89.403 204.472 C 89.403 204.069,89.544 203.740,89.716 203.740 C 89.888 203.740,90.243 203.219,90.505 202.582 C 91.033 201.295,91.089 201.210,92.524 199.510 C 93.724 198.090,94.953 197.948,96.373 199.065 C 96.903 199.481,97.594 199.827,97.911 199.833 C 98.227 199.839,98.797 200.080,99.178 200.368 C 99.558 200.655,100.439 200.874,101.137 200.855 L 102.404 200.819 100.980 200.487 C 100.196 200.304,98.460 199.599,97.122 198.919 C 94.210 197.442,93.693 197.405,92.650 198.605 C 87.018 205.082,85.306 215.341,89.116 219.777 C 95.090 226.733,113.064 229.225,125.657 224.842 C 127.083 224.346,128.335 223.802,128.438 223.635 C 128.542 223.467,128.844 223.330,129.110 223.330 C 132.222 223.330,141.729 212.838,141.768 209.360 C 141.771 209.110,142.052 208.183,142.392 207.302 C 143.360 204.791,143.529 135.809,142.571 133.952 C 141.119 131.137,142.061 131.268,122.480 131.154 L 105.029 131.052 104.073 132.077 M181.668 137.056 C 181.662 137.504,181.881 138.225,182.156 138.659 C 182.430 139.093,182.771 140.009,182.913 140.695 C 183.056 141.380,183.410 142.262,183.701 142.654 L 184.231 143.366 184.043 142.654 C 183.343 140.004,181.682 136.089,181.668 137.056 M281.714 145.275 C 281.403 145.988,280.788 147.453,280.346 148.531 C 279.905 149.608,279.318 150.944,279.042 151.498 C 278.766 152.053,278.540 152.676,278.540 152.884 C 278.540 153.091,278.241 153.920,277.875 154.725 C 276.054 158.739,275.690 159.630,275.690 160.075 C 275.690 161.495,273.970 161.728,273.547 160.366 C 273.321 159.636,272.909 158.533,272.632 157.916 C 272.355 157.299,272.128 156.635,272.128 156.441 C 272.128 156.247,271.811 155.390,271.424 154.536 C 271.036 153.682,270.716 153.279,270.711 153.641 C 270.707 154.002,270.920 154.723,271.184 155.243 C 271.807 156.468,272.857 159.481,273.091 160.719 C 273.447 162.597,276.046 162.305,276.046 160.387 C 276.046 159.872,276.808 158.017,278.039 155.537 C 278.314 154.982,278.540 154.358,278.540 154.151 C 278.540 153.793,279.440 151.684,280.533 149.481 C 280.808 148.927,281.033 148.283,281.033 148.051 C 281.033 147.819,281.362 147.015,281.765 146.264 C 282.167 145.513,282.448 144.692,282.388 144.439 C 282.328 144.185,282.025 144.562,281.714 145.275 M103.566 201.142 C 104.009 201.228,104.650 201.224,104.991 201.135 C 105.331 201.046,104.969 200.976,104.185 200.980 C 103.402 200.984,103.123 201.057,103.566 201.142 " stroke="none" fill="#949494" fill-rule="evenodd"></path><path id="path3" d="M154.408 130.350 C 153.037 130.499,151.434 130.804,150.846 131.028 C 149.603 131.500,151.373 131.392,155.654 130.735 C 158.702 130.267,168.795 130.270,171.505 130.740 C 172.680 130.943,174.203 131.197,174.889 131.303 L 176.135 131.497 175.067 130.883 C 173.865 130.194,159.300 129.818,154.408 130.350 M211.310 130.244 C 210.479 130.333,209.357 130.650,208.817 130.947 L 207.836 131.488 208.905 131.316 C 209.492 131.220,211.092 130.949,212.459 130.713 C 215.548 130.180,227.402 130.425,231.051 131.098 C 233.145 131.484,234.013 131.487,235.859 131.113 C 239.153 130.445,251.430 130.181,254.497 130.711 C 255.868 130.948,257.471 131.215,258.059 131.303 L 259.127 131.464 258.059 130.826 C 256.624 129.968,237.332 129.855,234.817 130.689 C 233.575 131.102,233.128 131.110,232.324 130.739 C 231.335 130.281,214.645 129.889,211.310 130.244 M294.482 130.246 C 293.554 130.333,292.352 130.650,291.811 130.950 L 290.828 131.497 292.253 131.256 C 293.037 131.124,294.399 130.879,295.280 130.711 C 297.421 130.306,308.445 130.297,311.131 130.699 C 312.306 130.875,313.989 131.121,314.871 131.245 L 316.474 131.471 315.417 130.866 C 314.358 130.260,299.156 129.810,294.482 130.246 M103.721 131.540 C 103.095 132.186,102.581 133.027,102.580 133.410 C 102.579 133.792,102.302 134.586,101.965 135.174 C 101.035 136.795,101.042 148.574,101.974 150.134 L 102.613 151.202 102.417 149.955 C 101.119 141.708,101.767 134.537,104.042 131.991 L 105.017 130.899 121.303 130.800 C 139.946 130.686,140.556 130.753,142.235 133.113 C 142.864 133.997,143.188 134.242,143.188 133.834 C 143.188 133.072,141.974 131.819,140.431 130.988 C 139.373 130.419,137.774 130.365,122.066 130.365 L 104.859 130.365 103.721 131.540 M147.492 131.932 C 146.987 132.541,147.617 135.453,148.392 136.097 C 148.664 136.323,148.887 136.789,148.887 137.133 C 148.887 137.477,149.117 137.949,149.398 138.182 C 149.680 138.416,150.010 139.063,150.132 139.621 C 150.255 140.179,150.586 140.724,150.868 140.832 C 151.150 140.940,151.380 141.265,151.380 141.555 C 151.380 142.056,152.813 144.986,153.468 145.822 C 153.637 146.038,153.881 146.656,154.009 147.195 C 154.138 147.734,154.388 148.175,154.564 148.175 C 154.741 148.175,154.989 148.644,155.115 149.218 C 155.241 149.793,155.574 150.453,155.855 150.687 C 156.137 150.920,156.367 151.388,156.367 151.726 C 156.367 152.063,156.687 152.709,157.079 153.161 C 157.471 153.613,157.792 154.284,157.792 154.652 C 157.792 155.020,158.032 155.413,158.326 155.526 C 158.620 155.638,158.860 156.013,158.860 156.357 C 158.860 156.701,159.156 157.365,159.518 157.833 C 159.880 158.300,160.284 159.123,160.416 159.662 C 160.547 160.200,160.812 160.641,161.004 160.641 C 161.196 160.641,161.354 160.940,161.354 161.305 C 161.354 161.671,161.674 162.377,162.066 162.875 C 162.458 163.374,162.778 164.017,162.778 164.305 C 162.778 164.593,163.008 165.019,163.290 165.253 C 163.571 165.486,163.902 166.136,164.025 166.696 C 164.148 167.257,164.479 167.907,164.760 168.140 C 165.041 168.374,165.272 168.856,165.272 169.212 C 165.272 169.569,165.413 169.947,165.586 170.054 C 165.758 170.161,166.972 172.374,168.282 174.973 C 169.592 177.571,170.807 179.938,170.982 180.232 C 171.157 180.525,171.715 181.647,172.221 182.725 C 172.728 183.802,173.656 185.565,174.283 186.643 L 175.423 188.602 175.601 205.165 C 175.806 224.244,175.805 224.237,179.163 224.935 C 179.849 225.077,180.635 225.375,180.910 225.598 C 181.604 226.159,200.222 226.164,200.925 225.603 C 201.200 225.384,202.049 225.091,202.813 224.954 C 204.444 224.659,205.736 223.883,206.337 222.835 C 206.650 222.288,206.816 217.409,206.946 204.935 C 207.109 189.252,207.177 187.727,207.747 187.097 C 208.090 186.718,208.370 186.162,208.370 185.861 C 208.370 185.560,208.691 184.907,209.083 184.409 C 209.475 183.910,209.795 183.168,209.795 182.758 C 209.795 182.348,209.938 182.012,210.113 182.012 C 210.287 182.012,210.681 181.385,210.988 180.618 C 211.295 179.851,211.713 179.120,211.917 178.994 C 212.121 178.868,212.289 178.383,212.289 177.916 C 212.289 177.450,212.455 176.965,212.659 176.839 C 212.863 176.713,213.532 175.541,214.145 174.235 C 214.757 172.929,215.392 171.808,215.555 171.742 C 215.717 171.677,215.851 171.437,215.852 171.208 C 215.853 170.980,216.494 169.527,217.277 167.980 C 218.059 166.434,218.700 164.968,218.700 164.724 C 218.700 164.479,218.940 164.187,219.234 164.074 C 219.528 163.961,219.768 163.623,219.768 163.322 C 219.768 163.022,220.089 162.178,220.481 161.447 C 220.873 160.716,221.193 159.915,221.193 159.667 C 221.193 159.419,221.350 159.216,221.543 159.216 C 221.735 159.216,222.000 158.776,222.131 158.237 C 222.263 157.698,222.667 156.875,223.028 156.408 C 223.390 155.941,223.687 155.279,223.687 154.938 C 223.687 154.596,223.927 154.117,224.221 153.874 C 224.515 153.630,224.755 153.195,224.755 152.907 C 224.755 152.619,225.076 151.976,225.467 151.477 C 225.859 150.979,226.180 150.286,226.180 149.937 C 226.180 149.588,226.305 149.249,226.458 149.184 C 226.611 149.118,227.190 148.103,227.745 146.928 C 228.299 145.752,228.889 144.550,229.055 144.256 C 229.222 143.963,229.927 142.568,230.623 141.158 C 232.137 138.089,232.490 137.804,232.992 139.243 C 233.202 139.846,233.505 140.338,233.666 140.338 C 233.828 140.338,234.063 140.808,234.189 141.382 C 234.315 141.957,234.648 142.617,234.929 142.851 C 235.211 143.084,235.441 143.567,235.441 143.923 C 235.441 144.279,235.574 144.653,235.737 144.754 C 235.900 144.854,237.462 147.753,239.210 151.196 C 240.957 154.639,242.817 158.284,243.342 159.296 C 243.868 160.307,244.389 161.384,244.501 161.689 C 244.612 161.994,245.340 163.366,246.118 164.737 C 246.897 166.109,247.632 167.471,247.752 167.765 C 247.995 168.359,249.568 171.562,250.027 172.395 C 250.189 172.689,250.761 173.855,251.298 174.985 C 251.835 176.116,252.414 177.127,252.584 177.233 C 252.755 177.338,252.894 177.724,252.894 178.090 C 252.894 178.456,253.154 179.015,253.471 179.333 C 254.126 179.988,254.616 179.776,254.049 179.083 C 253.845 178.833,251.487 174.301,248.809 169.012 C 246.130 163.722,243.803 159.154,243.638 158.860 C 243.472 158.566,242.853 157.364,242.262 156.189 C 239.928 151.547,237.534 146.850,236.723 145.325 C 235.904 143.784,234.475 140.979,233.366 138.736 C 232.659 137.305,232.686 137.323,232.054 137.847 C 231.750 138.100,225.815 149.720,218.867 163.669 L 206.233 189.030 206.233 205.267 C 206.233 222.148,206.177 222.819,204.670 223.806 C 200.641 226.446,181.888 226.500,177.895 223.883 C 176.376 222.888,176.314 222.183,176.296 205.587 L 176.279 189.671 174.961 187.072 C 170.928 179.125,163.275 164.127,159.930 157.614 C 146.644 131.750,146.881 132.304,148.887 131.750 L 149.777 131.505 148.841 131.469 C 148.327 131.450,147.719 131.658,147.492 131.932 M176.848 131.756 C 180.721 133.121,181.220 133.822,183.835 141.580 C 184.429 143.340,185.041 144.943,185.197 145.142 C 185.352 145.341,185.568 145.904,185.678 146.394 C 185.787 146.883,186.295 148.406,186.805 149.777 C 188.675 154.797,189.182 156.207,189.433 157.079 C 189.925 158.792,191.086 161.710,191.275 161.710 C 191.537 161.710,192.838 159.098,193.761 156.723 C 194.179 155.646,194.740 154.283,195.008 153.695 C 195.275 153.108,195.836 151.745,196.254 150.668 C 196.673 149.590,197.229 148.228,197.491 147.640 C 197.753 147.053,198.327 145.690,198.765 144.613 C 200.022 141.528,200.398 140.634,201.204 138.815 C 201.619 137.879,201.959 136.954,201.959 136.760 C 201.959 135.338,205.177 132.193,207.143 131.693 C 207.676 131.557,207.620 131.507,206.900 131.475 C 206.385 131.452,205.765 131.674,205.521 131.968 C 205.277 132.262,204.885 132.502,204.649 132.502 C 204.110 132.502,202.671 134.009,202.671 134.573 C 202.671 134.806,202.514 134.996,202.322 134.996 C 202.130 134.996,201.865 135.436,201.733 135.975 C 201.601 136.514,201.198 137.513,200.836 138.196 C 200.474 138.879,200.178 139.627,200.178 139.859 C 200.178 140.091,199.953 140.734,199.678 141.289 C 198.458 143.747,197.685 145.622,197.685 146.122 C 197.685 146.419,197.444 146.862,197.150 147.106 C 196.857 147.350,196.616 147.851,196.616 148.219 C 196.616 148.588,196.296 149.488,195.904 150.219 C 195.512 150.950,195.191 151.738,195.191 151.969 C 195.191 152.368,194.925 152.966,193.360 156.081 C 192.996 156.806,192.698 157.808,192.698 158.307 C 192.698 158.807,192.541 159.216,192.349 159.216 C 192.157 159.216,191.899 159.616,191.776 160.104 C 191.490 161.244,190.917 160.904,190.917 159.595 C 190.917 159.043,190.694 158.406,190.420 158.179 C 190.147 157.952,189.812 157.171,189.676 156.443 C 189.540 155.716,189.267 154.924,189.069 154.685 C 188.871 154.446,188.574 153.724,188.409 153.082 C 187.883 151.042,186.959 148.385,186.436 147.407 C 186.158 146.887,185.931 146.162,185.931 145.795 C 185.931 145.428,185.711 144.811,185.442 144.425 C 185.173 144.038,184.832 143.161,184.684 142.476 C 184.536 141.790,184.195 140.913,183.926 140.526 C 183.657 140.140,183.436 139.499,183.435 139.102 C 183.434 138.704,183.193 137.920,182.901 137.359 C 182.608 136.798,182.369 136.148,182.369 135.915 C 182.369 134.471,178.738 131.409,177.099 131.469 C 176.275 131.500,176.238 131.541,176.848 131.756 M259.662 131.663 C 261.079 132.121,263.173 133.280,263.767 133.937 C 264.401 134.637,264.817 135.573,265.900 138.736 C 266.168 139.519,266.810 141.282,267.326 142.654 C 267.842 144.025,268.353 145.548,268.463 146.037 C 268.572 146.527,268.812 147.118,268.995 147.350 C 269.178 147.583,269.464 148.224,269.629 148.775 L 269.930 149.777 269.960 148.645 C 269.977 148.023,269.755 147.277,269.467 146.989 C 269.178 146.700,268.838 145.810,268.710 145.011 C 268.582 144.212,268.257 143.375,267.988 143.151 C 267.718 142.927,267.498 142.363,267.498 141.896 C 267.498 141.430,267.177 140.450,266.785 139.719 C 266.394 138.988,266.073 138.158,266.073 137.874 C 266.073 135.416,262.323 131.397,260.091 131.462 C 259.561 131.477,259.368 131.568,259.662 131.663 M288.286 132.069 C 287.867 132.405,287.105 132.983,286.594 133.354 C 286.082 133.724,285.663 134.225,285.663 134.468 C 285.663 134.710,285.422 135.109,285.126 135.354 C 284.830 135.600,284.490 136.418,284.369 137.172 C 284.248 137.927,283.929 138.727,283.660 138.951 C 283.391 139.174,283.170 139.654,283.170 140.017 C 283.170 140.380,282.850 141.202,282.459 141.844 C 282.068 142.485,281.747 143.370,281.747 143.811 C 281.746 144.252,281.587 144.613,281.394 144.613 C 281.201 144.613,280.862 145.334,280.640 146.215 C 280.418 147.097,280.102 147.818,279.938 147.818 C 279.774 147.818,279.528 148.415,279.392 149.145 C 279.255 149.875,278.927 150.688,278.663 150.952 C 278.399 151.215,278.183 151.683,278.183 151.990 C 278.183 152.297,277.846 153.288,277.433 154.191 C 276.074 157.163,275.742 157.959,275.488 158.860 C 275.102 160.233,273.909 160.828,273.909 159.648 C 273.909 159.298,273.589 158.382,273.197 157.614 C 272.805 156.845,272.484 155.885,272.484 155.480 C 272.484 155.076,272.267 154.428,272.001 154.042 C 271.735 153.655,271.410 152.754,271.279 152.039 C 271.148 151.324,270.805 150.543,270.516 150.304 C 269.852 149.753,269.838 149.673,270.915 152.627 C 271.414 153.998,271.989 155.681,272.191 156.367 C 272.393 157.053,272.686 157.774,272.843 157.970 C 272.999 158.166,273.310 159.009,273.533 159.844 C 273.959 161.439,275.087 161.522,275.560 159.995 C 275.816 159.170,277.060 156.140,277.870 154.369 C 278.238 153.564,278.540 152.735,278.540 152.528 C 278.540 152.320,278.766 151.697,279.042 151.142 C 279.318 150.587,279.905 149.252,280.346 148.175 C 281.309 145.820,282.160 143.820,282.945 142.065 C 283.265 141.350,283.526 140.602,283.526 140.402 C 283.526 140.203,283.751 139.586,284.027 139.032 C 284.302 138.477,284.886 137.222,285.325 136.242 C 286.381 133.885,286.901 133.333,289.033 132.306 C 290.433 131.632,290.632 131.444,289.938 131.450 C 289.448 131.454,288.704 131.733,288.286 132.069 M316.961 131.909 C 317.389 132.426,316.616 134.164,310.728 145.937 C 302.948 161.492,303.692 159.929,304.066 159.928 C 304.394 159.926,307.747 153.213,307.747 152.560 C 307.747 152.336,307.873 152.099,308.027 152.033 C 308.382 151.883,312.745 143.150,312.738 142.603 C 312.736 142.379,312.974 142.103,313.268 141.991 C 313.562 141.878,313.803 141.500,313.805 141.151 C 313.806 140.802,314.125 140.036,314.515 139.448 C 314.904 138.860,315.223 138.116,315.225 137.794 C 315.226 137.472,315.467 137.117,315.761 137.004 C 316.055 136.891,316.296 136.532,316.296 136.206 C 316.296 135.881,316.628 135.077,317.034 134.420 C 317.847 133.103,317.836 131.764,317.008 131.493 C 316.550 131.343,316.544 131.403,316.961 131.909 M143.359 169.368 C 143.359 188.566,143.402 196.368,143.455 186.705 C 143.508 177.042,143.508 161.334,143.455 151.798 C 143.402 142.263,143.359 150.169,143.359 169.368 M102.610 151.840 C 102.562 152.947,104.042 154.590,105.054 154.550 C 105.902 154.517,105.912 154.499,105.193 154.283 C 104.425 154.053,103.231 152.760,102.842 151.736 C 102.683 151.318,102.633 151.340,102.610 151.840 M115.316 154.800 C 115.903 155.066,115.955 187.184,115.374 191.027 C 114.783 194.940,111.980 199.086,109.900 199.122 C 109.500 199.129,108.771 199.364,108.281 199.644 C 107.048 200.349,101.926 200.350,100.575 199.646 C 100.014 199.353,99.214 199.113,98.797 199.112 C 98.380 199.111,97.845 198.875,97.607 198.589 C 97.370 198.303,96.837 197.961,96.423 197.830 C 96.009 197.698,95.471 197.392,95.228 197.149 C 91.771 193.692,83.904 212.558,86.910 217.097 C 87.299 217.685,87.619 218.384,87.620 218.650 C 87.623 219.297,91.736 223.234,92.721 223.534 C 93.149 223.664,93.768 224.006,94.096 224.294 C 94.425 224.582,94.960 224.763,95.286 224.697 C 95.650 224.623,95.075 224.164,93.798 223.508 C 89.889 221.500,87.186 217.990,86.682 214.270 C 86.251 211.084,89.104 202.855,91.784 199.554 C 93.749 197.134,93.941 197.110,97.311 198.839 L 100.267 200.356 104.363 200.356 C 111.275 200.356,114.280 198.128,115.757 191.909 C 116.862 187.260,116.710 154.825,115.583 154.686 C 115.191 154.638,115.071 154.689,115.316 154.800 M299.246 169.057 C 296.824 173.930,293.658 180.293,292.212 183.198 L 289.581 188.480 289.576 204.925 C 289.570 222.871,289.611 222.504,287.476 223.943 C 286.580 224.547,286.444 224.752,286.946 224.744 C 287.318 224.738,288.103 224.310,288.691 223.794 L 289.760 222.856 289.938 205.347 C 290.101 189.288,290.167 187.786,290.739 187.215 C 291.082 186.872,291.362 186.303,291.362 185.949 C 291.362 185.595,291.587 185.119,291.862 184.891 C 292.136 184.663,292.465 184.063,292.592 183.558 C 292.719 183.052,293.055 182.406,293.339 182.122 C 293.623 181.838,293.856 181.316,293.856 180.962 C 293.856 180.608,294.086 180.128,294.367 179.894 C 294.648 179.661,294.982 179.000,295.108 178.426 C 295.234 177.852,295.472 177.382,295.637 177.382 C 295.801 177.382,296.039 176.912,296.166 176.338 C 296.292 175.764,296.615 175.112,296.883 174.889 C 297.152 174.666,297.473 174.025,297.596 173.464 C 297.719 172.903,298.050 172.254,298.331 172.020 C 298.612 171.787,298.842 171.314,298.842 170.971 C 298.842 170.627,299.073 170.154,299.354 169.921 C 299.635 169.688,299.966 169.038,300.089 168.477 C 300.212 167.917,300.543 167.267,300.824 167.034 C 301.106 166.800,301.336 166.328,301.336 165.984 C 301.336 165.640,301.560 165.172,301.835 164.944 C 302.110 164.716,302.443 164.096,302.575 163.565 C 302.708 163.034,303.058 162.332,303.354 162.003 C 303.649 161.675,303.837 161.135,303.771 160.802 C 303.705 160.470,301.669 164.184,299.246 169.057 M254.324 180.866 C 254.321 181.313,254.559 181.771,254.853 181.884 C 255.147 181.996,255.387 182.374,255.387 182.723 C 255.387 183.073,255.718 183.737,256.123 184.199 C 256.950 185.146,256.921 184.994,255.839 182.725 C 254.688 180.312,254.331 179.874,254.324 180.866 M256.812 185.648 C 256.812 185.971,257.045 186.468,257.329 186.753 C 257.613 187.037,257.949 187.683,258.076 188.188 C 258.279 188.996,259.305 190.279,259.305 189.725 C 259.305 189.447,257.880 186.655,257.283 185.762 C 256.891 185.178,256.812 185.159,256.812 185.648 M142.894 205.490 C 142.151 215.741,131.938 224.610,118.255 226.887 L 116.652 227.153 118.810 227.201 C 120.220 227.232,121.208 227.067,121.659 226.725 C 122.040 226.438,122.832 226.192,123.419 226.179 C 124.007 226.166,125.129 225.846,125.913 225.467 C 126.696 225.089,127.609 224.774,127.940 224.767 C 128.271 224.761,128.628 224.616,128.734 224.445 C 128.839 224.275,129.829 223.678,130.933 223.119 C 132.038 222.560,133.020 221.898,133.116 221.648 C 133.212 221.398,133.461 221.193,133.668 221.193 C 134.057 221.193,134.415 220.912,136.242 219.164 C 138.900 216.624,142.119 211.764,142.119 210.293 C 142.119 210.000,142.369 209.278,142.673 208.689 C 143.008 208.041,143.173 207.028,143.092 206.124 C 143.017 205.303,142.928 205.017,142.894 205.490 M259.311 222.399 C 259.299 223.849,260.968 224.765,265.650 225.881 C 268.114 226.468,283.006 226.058,284.773 225.354 C 286.606 224.624,285.536 224.593,282.279 225.283 C 274.365 226.960,261.164 225.397,259.764 222.618 C 259.401 221.896,259.315 221.854,259.311 222.399 M96.823 225.323 C 97.268 225.635,98.466 226.006,99.484 226.147 C 100.503 226.287,101.686 226.593,102.114 226.826 C 102.544 227.059,104.056 227.225,105.498 227.196 L 108.103 227.144 106.144 226.903 C 103.355 226.559,99.794 225.826,98.118 225.249 C 96.234 224.601,95.826 224.624,96.823 225.323 M111.051 227.510 C 111.889 227.585,113.171 227.584,113.901 227.507 C 114.630 227.431,113.945 227.369,112.378 227.371 C 110.810 227.372,110.213 227.434,111.051 227.510 " stroke="none" fill="#6e6e6e" fill-rule="evenodd"></path><path id="path4" d="M157.707 130.617 C 158.150 130.702,158.791 130.699,159.131 130.610 C 159.472 130.521,159.110 130.451,158.326 130.455 C 157.542 130.459,157.264 130.532,157.707 130.617 M168.392 130.617 C 168.835 130.702,169.477 130.699,169.817 130.610 C 170.158 130.521,169.795 130.451,169.012 130.455 C 168.228 130.459,167.949 130.532,168.392 130.617 M213.985 130.617 C 214.428 130.702,215.069 130.699,215.409 130.610 C 215.750 130.521,215.387 130.451,214.604 130.455 C 213.820 130.459,213.541 130.532,213.985 130.617 M224.670 130.617 C 225.113 130.702,225.754 130.699,226.095 130.610 C 226.436 130.521,226.073 130.451,225.289 130.455 C 224.506 130.459,224.227 130.532,224.670 130.617 M240.873 130.611 C 241.215 130.700,241.776 130.700,242.119 130.611 C 242.462 130.521,242.182 130.448,241.496 130.448 C 240.810 130.448,240.530 130.521,240.873 130.611 M251.741 130.617 C 252.184 130.702,252.825 130.699,253.165 130.610 C 253.506 130.521,253.143 130.451,252.360 130.455 C 251.576 130.459,251.298 130.532,251.741 130.617 M296.977 130.617 C 297.420 130.702,298.061 130.699,298.401 130.610 C 298.742 130.521,298.379 130.451,297.596 130.455 C 296.812 130.459,296.533 130.532,296.977 130.617 M307.658 130.616 C 308.099 130.701,308.820 130.701,309.261 130.616 C 309.702 130.532,309.341 130.462,308.459 130.462 C 307.578 130.462,307.217 130.532,307.658 130.616 M113.916 130.988 C 118.484 131.045,125.857 131.045,130.300 130.988 C 134.744 130.932,131.006 130.885,121.995 130.885 C 112.983 130.886,109.348 130.932,113.916 130.988 M101.611 142.832 C 101.611 143.713,101.680 144.074,101.765 143.633 C 101.850 143.192,101.850 142.471,101.765 142.030 C 101.680 141.589,101.611 141.950,101.611 142.832 M107.999 154.494 C 109.312 154.562,111.556 154.562,112.985 154.495 C 114.414 154.427,113.339 154.371,110.597 154.370 C 107.854 154.370,106.685 154.425,107.999 154.494 M289.389 205.343 C 289.390 214.354,289.436 217.990,289.492 213.422 C 289.549 208.854,289.549 201.480,289.492 197.037 C 289.436 192.594,289.389 196.331,289.389 205.343 M206.041 205.699 C 206.041 214.711,206.088 218.346,206.144 213.778 C 206.200 209.210,206.200 201.837,206.144 197.393 C 206.087 192.950,206.041 196.687,206.041 205.699 M176.477 205.877 C 176.477 214.791,176.524 218.437,176.580 213.980 C 176.637 209.524,176.637 202.231,176.580 197.774 C 176.524 193.317,176.477 196.963,176.477 205.877 M259.469 205.877 C 259.469 214.791,259.516 218.437,259.572 213.980 C 259.629 209.524,259.629 202.231,259.572 197.774 C 259.516 193.317,259.469 196.963,259.469 205.877 M103.212 200.792 C 103.852 200.872,104.814 200.870,105.349 200.789 C 105.884 200.708,105.361 200.643,104.185 200.645 C 103.010 200.647,102.572 200.713,103.212 200.792 M86.651 213.357 C 86.651 214.239,86.720 214.599,86.805 214.159 C 86.890 213.718,86.890 212.996,86.805 212.556 C 86.720 212.115,86.651 212.476,86.651 213.357 M110.166 227.157 C 111.497 227.225,113.580 227.225,114.797 227.156 C 116.013 227.086,114.924 227.030,112.378 227.031 C 109.831 227.031,108.836 227.088,110.166 227.157 " stroke="none" fill="#8c8c8c" fill-rule="evenodd"></path></g></svg>